<?xml version='1.0' encoding='UTF-8'?>
<svg xmlns="http://www.w3.org/2000/svg" xmlns:svg="http://www.w3.org/2000/svg" xmlns:ooo="http://xml.openoffice.org/svg/export" version="1.2" width="28.9061mm" height="9.3237mm" viewBox="12122.3067 23831.9327 2890.6060 932.3734" preserveAspectRatio="xMidYMid meet" fill-rule="evenodd" stroke-width="28.222" stroke-linejoin="round" xml:space="preserve" id="svg288">
 <defs class="ClipPathGroup" id="defs8">
  <clipPath id="presentation_clip_path" clipPathUnits="userSpaceOnUse">
   <rect x="0" y="0" width="21590" height="27940" id="rect2"/>
  </clipPath>
  <clipPath id="presentation_clip_path_shrink" clipPathUnits="userSpaceOnUse">
   <rect x="21" y="27" width="21547" height="27885" id="rect5"/>
  </clipPath>
 </defs>
 <defs class="TextShapeIndex" id="defs63">
  <g ooo:slide="id1" ooo:id-list="id3" id="g61"/>
 </defs>
 <defs class="EmbeddedBulletChars" id="defs95">
  <g id="bullet-char-template-57356" transform="scale(0.00048828125,-0.00048828125)">
   <path d="M 580,1141 L 1163,571 580,0 -4,571 580,1141 Z" id="path65"/>
  </g>
  <g id="bullet-char-template-57354" transform="scale(0.00048828125,-0.00048828125)">
   <path d="M 8,1128 L 1137,1128 1137,0 8,0 8,1128 Z" id="path68"/>
  </g>
  <g id="bullet-char-template-10146" transform="scale(0.00048828125,-0.00048828125)">
   <path d="M 174,0 L 602,739 174,1481 1456,739 174,0 Z M 1358,739 L 309,1346 659,739 1358,739 Z" id="path71"/>
  </g>
  <g id="bullet-char-template-10132" transform="scale(0.00048828125,-0.00048828125)">
   <path d="M 2015,739 L 1276,0 717,0 1260,543 174,543 174,936 1260,936 717,1481 1274,1481 2015,739 Z" id="path74"/>
  </g>
  <g id="bullet-char-template-10007" transform="scale(0.00048828125,-0.00048828125)">
   <path d="M 0,-2 C -7,14 -16,27 -25,37 L 356,567 C 262,823 215,952 215,954 215,979 228,992 255,992 264,992 276,990 289,987 310,991 331,999 354,1012 L 381,999 492,748 772,1049 836,1024 860,1049 C 881,1039 901,1025 922,1006 886,937 835,863 770,784 769,783 710,716 594,584 L 774,223 C 774,196 753,168 711,139 L 727,119 C 717,90 699,76 672,76 641,76 570,178 457,381 L 164,-76 C 142,-110 111,-127 72,-127 30,-127 9,-110 8,-76 1,-67 -2,-52 -2,-32 -2,-23 -1,-13 0,-2 Z" id="path77"/>
  </g>
  <g id="bullet-char-template-10004" transform="scale(0.00048828125,-0.00048828125)">
   <path d="M 285,-33 C 182,-33 111,30 74,156 52,228 41,333 41,471 41,549 55,616 82,672 116,743 169,778 240,778 293,778 328,747 346,684 L 369,508 C 377,444 397,411 428,410 L 1163,1116 C 1174,1127 1196,1133 1229,1133 1271,1133 1292,1118 1292,1087 L 1292,965 C 1292,929 1282,901 1262,881 L 442,47 C 390,-6 338,-33 285,-33 Z" id="path80"/>
  </g>
  <g id="bullet-char-template-9679" transform="scale(0.00048828125,-0.00048828125)">
   <path d="M 813,0 C 632,0 489,54 383,161 276,268 223,411 223,592 223,773 276,916 383,1023 489,1130 632,1184 813,1184 992,1184 1136,1130 1245,1023 1353,916 1407,772 1407,592 1407,412 1353,268 1245,161 1136,54 992,0 813,0 Z" id="path83"/>
  </g>
  <g id="bullet-char-template-8226" transform="scale(0.00048828125,-0.00048828125)">
   <path d="M 346,457 C 273,457 209,483 155,535 101,586 74,649 74,723 74,796 101,859 155,911 209,963 273,989 346,989 419,989 480,963 531,910 582,859 608,796 608,723 608,648 583,586 532,535 482,483 420,457 346,457 Z" id="path86"/>
  </g>
  <g id="bullet-char-template-8211" transform="scale(0.00048828125,-0.00048828125)">
   <path d="M -4,459 L 1135,459 1135,606 -4,606 -4,459 Z" id="path89"/>
  </g>
  <g id="bullet-char-template-61548" transform="scale(0.00048828125,-0.00048828125)">
   <path d="M 173,740 C 173,903 231,1043 346,1159 462,1274 601,1332 765,1332 928,1332 1067,1274 1183,1159 1299,1043 1357,903 1357,740 1357,577 1299,437 1183,322 1067,206 928,148 765,148 601,148 462,206 346,322 231,437 173,577 173,740 Z" id="path92"/>
  </g>
 </defs>
 <g id="g100">
  <g id="id2" class="Master_Slide">
   <g id="bg-id2" class="Background"/>
   <g id="bo-id2" class="BackgroundObjects"/>
  </g>
 </g>
 <g class="SlideGroup" id="g286">
  <g id="g284">
   <g id="container-id1">
    <g id="id1" class="Slide" clip-path="url(#presentation_clip_path)">
     <g class="Page" id="g280">
      <g class="OLE2" id="g278">
       <g id="id3">
        <path id="rect102" class="BoundingBox" style="fill:none" d="m 12123,23812 h 2889 v 989 h -2889 z"/>
        <defs id="defs107">
         <clipPath id="clip_path_1" clipPathUnits="userSpaceOnUse">
          <path d="m 12118,23812 h 2897 v 993 h -2897 z" id="path104"/>
         </clipPath>
        </defs>
        <g clip-path="url(#clip_path_1)" id="g275">
         <g aria-label="∑" id="text115" class="SVGTextShape"><path d="m 12388.41,24283.034 h -224.389 v -6.323 l 114.501,-142.188 -114.501,-139.624 v -6.323 h 218.408 l 4.443,57.764 h -7.007 q -4.443,-43.75 -42.212,-43.75 h -126.465 l 96.045,117.236 -107.495,133.13 h 139.624 q 42.212,0 53.15,-42.041 l 6.665,1.025 z" style="font-size:350px;font-family:OpenSymbol;white-space:pre" id="path293"/></g>
         <g aria-label="i" id="text123" class="SVGTextShape"><path d="m 12182.531,24424.078 11.039,1.758 -0.562,3.164 h -22.992 l 10.757,-61.172 -9.07,-1.758 0.563,-3.164 h 21.023 z m 15.117,-82.758 q 0,3.094 -2.25,5.344 -2.25,2.25 -5.414,2.25 -3.093,0 -5.343,-2.25 -2.25,-2.25 -2.25,-5.344 0,-3.164 2.25,-5.414 2.25,-2.25 5.343,-2.25 3.164,0 5.414,2.25 2.25,2.25 2.25,5.414 z" style="font-style:italic;font-size:144px;font-family:'Liberation Serif', serif;white-space:pre" id="path296"/></g>
         <g aria-label="=" id="text131" class="SVGTextShape"><path d="m 12224.539,24408.398 v -8.929 h 83.25 v 8.929 z m 0,-35.015 v -9.071 h 83.25 v 9.071 z" style="font-size:144px;font-family:OpenSymbol;white-space:pre" id="path299"/></g>
         <g aria-label="0" id="text139" class="SVGTextShape"><path d="m 12395.516,24381.469 q 0,48.937 -30.938,48.937 -14.906,0 -22.5,-12.515 -7.594,-12.516 -7.594,-36.422 0,-23.414 7.594,-35.789 7.594,-12.446 23.063,-12.446 14.906,0 22.64,12.305 7.735,12.234 7.735,35.93 z m -12.938,0 q 0,-22.641 -4.289,-32.625 -4.289,-9.985 -13.711,-9.985 -9.14,0 -13.148,9.422 -4.008,9.422 -4.008,33.188 0,23.906 4.078,33.679 4.078,9.704 13.078,9.704 9.281,0 13.641,-10.196 4.359,-10.265 4.359,-33.187 z" style="font-size:144px;font-family:'Liberation Serif', serif;white-space:pre" id="path302"/></g>
         <g aria-label="32" id="text147" class="SVGTextShape"><path d="m 12277.375,23914.336 q 0,12.726 -8.719,19.898 -8.718,7.172 -24.679,7.172 -13.36,0 -25.313,-3.023 l -0.773,-19.828 h 4.64 l 3.164,13.218 q 2.743,1.547 7.735,2.672 5.062,1.125 9.422,1.125 11.039,0 16.312,-5.062 5.274,-5.063 5.274,-16.875 0,-9.281 -4.852,-14.063 -4.852,-4.851 -15.047,-5.343 l -10.055,-0.563 v -5.766 l 10.055,-0.632 q 7.945,-0.422 11.742,-4.922 3.797,-4.5 3.797,-13.641 0,-9.492 -4.148,-13.781 -4.078,-4.36 -13.078,-4.36 -3.727,0 -7.805,1.055 -4.078,0.985 -7.172,2.672 l -2.461,11.531 h -4.641 v -18.14 q 6.961,-1.828 12.024,-2.391 5.062,-0.633 10.055,-0.633 30.234,0 30.234,23.203 0,9.774 -5.414,15.61 -5.344,5.765 -15.188,7.172 12.797,1.476 18.844,7.382 6.047,5.836 6.047,16.313 z" style="font-size:144px;font-family:'Liberation Serif', serif;white-space:pre" id="path305"/><path d="m 12347.055,23940 h -57.727 v -10.336 l 13.078,-11.883 q 12.586,-11.039 18.492,-17.859 5.907,-6.82 8.438,-14.063 2.602,-7.242 2.602,-16.593 0,-9.141 -4.149,-13.922 -4.148,-4.782 -13.57,-4.782 -3.727,0 -7.664,1.055 -3.938,0.985 -6.961,2.672 l -2.461,11.531 h -4.641 v -18.14 q 12.797,-3.024 21.727,-3.024 15.469,0 23.203,6.469 7.805,6.398 7.805,18.141 0,7.875 -3.094,14.906 -3.024,6.961 -9.352,13.922 -6.328,6.89 -20.953,19.336 -6.258,5.343 -13.289,11.742 h 48.516 z" style="font-size:144px;font-family:'Liberation Serif', serif;white-space:pre" id="path307"/></g>
         <g aria-label="210,000" id="text155" class="SVGTextShape"><path d="m 12574.758,24216 h -96.211 v -17.227 l 21.797,-19.804 q 20.976,-18.399 30.82,-29.766 9.844,-11.367 14.063,-23.437 4.336,-12.071 4.336,-27.657 0,-15.234 -6.915,-23.203 -6.914,-7.969 -22.617,-7.969 -6.211,0 -12.773,1.758 -6.563,1.641 -11.602,4.453 l -4.101,19.219 h -7.735 v -30.234 q 21.328,-5.039 36.211,-5.039 25.782,0 38.672,10.781 13.008,10.664 13.008,30.234 0,13.125 -5.156,24.844 -5.039,11.602 -15.586,23.203 -10.547,11.485 -34.922,32.227 -10.43,8.906 -22.149,19.57 h 80.86 z" style="font-size:240px;font-family:'Liberation Serif', serif;white-space:pre" id="path310"/><path d="m 12661.477,24206.625 32.109,3.164 v 6.211 h -84.492 v -6.211 l 32.226,-3.164 v -128.203 l -31.757,11.367 v -6.211 l 45.82,-26.016 h 6.094 z" style="font-size:240px;font-family:'Liberation Serif', serif;white-space:pre" id="path312"/><path d="m 12818.859,24136.781 q 0,81.563 -51.562,81.563 -24.844,0 -37.5,-20.86 -12.656,-20.859 -12.656,-60.703 0,-39.023 12.656,-59.648 12.656,-20.742 38.437,-20.742 24.844,0 37.735,20.507 12.89,20.391 12.89,59.883 z m -21.562,0 q 0,-37.734 -7.149,-54.375 -7.148,-16.64 -22.851,-16.64 -15.234,0 -21.914,15.703 -6.68,15.703 -6.68,55.312 0,39.844 6.797,56.133 6.797,16.172 21.797,16.172 15.469,0 22.734,-16.992 7.266,-17.11 7.266,-55.313 z" style="font-size:240px;font-family:'Liberation Serif', serif;white-space:pre" id="path314"/><path d="m 12872.883,24210.258 q 0,16.054 -9.375,26.836 -9.258,10.898 -26.367,15.82 v -9.023 q 20.625,-6.563 20.625,-19.688 0,-2.344 -1.758,-4.219 -1.758,-1.875 -6.094,-4.101 -7.969,-4.102 -7.969,-11.602 0,-6.328 3.985,-9.609 3.984,-3.399 10.195,-3.399 7.5,0 12.07,5.391 4.688,5.391 4.688,13.594 z" style="font-size:240px;font-family:'Liberation Serif', serif;white-space:pre" id="path316"/><path d="m 12998.859,24136.781 q 0,81.563 -51.562,81.563 -24.844,0 -37.5,-20.86 -12.656,-20.859 -12.656,-60.703 0,-39.023 12.656,-59.648 12.656,-20.742 38.437,-20.742 24.844,0 37.735,20.507 12.89,20.391 12.89,59.883 z m -21.562,0 q 0,-37.734 -7.149,-54.375 -7.148,-16.64 -22.851,-16.64 -15.234,0 -21.914,15.703 -6.68,15.703 -6.68,55.312 0,39.844 6.797,56.133 6.797,16.172 21.797,16.172 15.469,0 22.734,-16.992 7.266,-17.11 7.266,-55.313 z" style="font-size:240px;font-family:'Liberation Serif', serif;white-space:pre" id="path318"/><path d="m 13118.859,24136.781 q 0,81.563 -51.562,81.563 -24.844,0 -37.5,-20.86 -12.656,-20.859 -12.656,-60.703 0,-39.023 12.656,-59.648 12.656,-20.742 38.437,-20.742 24.844,0 37.735,20.507 12.89,20.391 12.89,59.883 z m -21.562,0 q 0,-37.734 -7.149,-54.375 -7.148,-16.64 -22.851,-16.64 -15.234,0 -21.914,15.703 -6.68,15.703 -6.68,55.312 0,39.844 6.797,56.133 6.797,16.172 21.797,16.172 15.469,0 22.734,-16.992 7.266,-17.11 7.266,-55.313 z" style="font-size:240px;font-family:'Liberation Serif', serif;white-space:pre" id="path320"/><path d="m 13238.859,24136.781 q 0,81.563 -51.562,81.563 -24.844,0 -37.5,-20.86 -12.656,-20.859 -12.656,-60.703 0,-39.023 12.656,-59.648 12.656,-20.742 38.437,-20.742 24.844,0 37.735,20.507 12.89,20.391 12.89,59.883 z m -21.562,0 q 0,-37.734 -7.149,-54.375 -7.148,-16.64 -22.851,-16.64 -15.234,0 -21.914,15.703 -6.68,15.703 -6.68,55.312 0,39.844 6.797,56.133 6.797,16.172 21.797,16.172 15.469,0 22.734,-16.992 7.266,-17.11 7.266,-55.313 z" style="font-size:240px;font-family:'Liberation Serif', serif;white-space:pre" id="path322"/></g>
         <g aria-label="50" id="text163" class="SVGTextShape"><path d="m 13356.836,23987.125 q 27.187,0 40.43,11.133 13.359,11.133 13.359,33.984 0,23.672 -14.414,36.445 -14.414,12.657 -41.25,12.657 -22.266,0 -39.727,-5.039 l -1.289,-33.047 h 7.735 l 5.273,22.031 q 5.156,2.813 12.305,4.57 7.265,1.758 13.828,1.758 18.516,0 27.187,-8.672 8.79,-8.789 8.79,-29.531 0,-14.531 -3.75,-21.914 -3.75,-7.5 -11.954,-11.016 -8.203,-3.515 -22.031,-3.515 -10.664,0 -20.859,2.812 h -11.25 v -77.929 h 79.687 v 17.929 h -69.14 v 50.156 q 12.656,-2.812 27.07,-2.812 z" style="font-size:240px;font-family:'Liberation Serif', serif;white-space:pre" id="path325"/><path d="m 13530.859,23999.781 q 0,81.563 -51.562,81.563 -24.844,0 -37.5,-20.86 -12.656,-20.859 -12.656,-60.703 0,-39.023 12.656,-59.648 12.656,-20.742 38.437,-20.742 24.844,0 37.735,20.507 12.89,20.391 12.89,59.883 z m -21.562,0 q 0,-37.734 -7.149,-54.375 -7.148,-16.64 -22.851,-16.64 -15.234,0 -21.914,15.703 -6.68,15.703 -6.68,55.312 0,39.844 6.797,56.133 6.797,16.172 21.797,16.172 15.469,0 22.734,-16.992 7.266,-17.11 7.266,-55.313 z" style="font-size:240px;font-family:'Liberation Serif', serif;white-space:pre" id="path327"/></g>
         <g aria-label="⋅" id="text171" class="SVGTextShape"><path d="m 13573.828,24018.648 q -3.867,-4.101 -3.867,-9.023 0,-4.922 3.867,-9.023 3.867,-3.868 8.906,-3.868 5.391,0 9.024,3.75 3.867,3.868 3.867,9.141 0,5.273 -3.867,9.141 -3.633,3.867 -9.024,3.867 -4.921,0 -8.906,-3.985 z" style="font-size:240px;font-family:OpenSymbol;white-space:pre" id="path330"/></g>
         <g aria-label="10" id="text179" class="SVGTextShape"><path d="m 13695.477,24069.625 32.109,3.164 v 6.211 h -84.492 v -6.211 l 32.226,-3.164 v -128.203 l -31.757,11.367 v -6.211 l 45.82,-26.016 h 6.094 z" style="font-size:240px;font-family:'Liberation Serif', serif;white-space:pre" id="path333"/><path d="m 13852.859,23999.781 q 0,81.563 -51.562,81.563 -24.844,0 -37.5,-20.86 -12.656,-20.859 -12.656,-60.703 0,-39.023 12.656,-59.648 12.656,-20.742 38.437,-20.742 24.844,0 37.735,20.507 12.89,20.391 12.89,59.883 z m -21.562,0 q 0,-37.734 -7.149,-54.375 -7.148,-16.64 -22.851,-16.64 -15.234,0 -21.914,15.703 -6.68,15.703 -6.68,55.312 0,39.844 6.797,56.133 6.797,16.172 21.797,16.172 15.469,0 22.734,-16.992 7.266,-17.11 7.266,-55.313 z" style="font-size:240px;font-family:'Liberation Serif', serif;white-space:pre" id="path335"/></g>
         <g aria-label="8" id="text187" class="SVGTextShape"><path d="m 13931.633,23887.703 q 0,7.734 -3.797,13.149 -3.727,5.343 -10.125,8.156 8.016,2.953 12.375,9.281 4.43,6.258 4.43,15.258 0,13.359 -7.524,20.109 -7.523,6.75 -23.414,6.75 -30.094,0 -30.094,-26.859 0,-9.352 4.5,-15.469 4.5,-6.187 12.164,-9.07 -6.117,-2.813 -9.984,-8.156 -3.797,-5.344 -3.797,-13.149 0,-11.672 7.102,-18.07 7.172,-6.399 20.672,-6.399 13.078,0 20.25,6.399 7.242,6.328 7.242,18.07 z m -9.774,45.844 q 0,-11.25 -4.429,-16.313 -4.36,-5.062 -13.852,-5.062 -9.281,0 -13.359,4.851 -4.078,4.782 -4.078,16.524 0,11.883 4.148,16.594 4.149,4.711 13.289,4.711 9.352,0 13.781,-4.852 4.5,-4.922 4.5,-16.453 z m -2.882,-45.844 q 0,-9.703 -3.797,-14.273 -3.797,-4.571 -11.461,-4.571 -7.453,0 -11.11,4.43 -3.586,4.43 -3.586,14.414 0,9.774 3.516,14.063 3.516,4.218 11.18,4.218 7.875,0 11.531,-4.289 3.727,-4.359 3.727,-13.992 z" style="font-size:144px;font-family:'Liberation Serif', serif;white-space:pre" id="path338"/></g>
         <path id="rect189" d="m 13288,24143 h 667 v 12 h -667 z"/>
         <g aria-label="2" id="text197" class="SVGTextShape"><path d="m 13647.758,24414 h -96.211 v -17.227 l 21.797,-19.804 q 20.976,-18.399 30.82,-29.766 9.844,-11.367 14.063,-23.437 4.336,-12.071 4.336,-27.657 0,-15.234 -6.915,-23.203 -6.914,-7.969 -22.617,-7.969 -6.211,0 -12.773,1.758 -6.563,1.641 -11.602,4.453 l -4.101,19.219 h -7.735 v -30.234 q 21.328,-5.039 36.211,-5.039 25.782,0 38.672,10.781 13.008,10.664 13.008,30.234 0,13.125 -5.156,24.844 -5.039,11.602 -15.586,23.203 -10.547,11.485 -34.922,32.227 -10.43,8.906 -22.149,19.57 h 80.86 z" style="font-size:240px;font-family:'Liberation Serif', serif;white-space:pre" id="path342"/></g>
         <g aria-label="i" id="text205" class="SVGTextShape"><path d="m 13681.531,24289.078 11.039,1.758 -0.562,3.164 h -22.992 l 10.757,-61.172 -9.07,-1.758 0.563,-3.164 h 21.023 z m 15.117,-82.758 q 0,3.094 -2.25,5.344 -2.25,2.25 -5.414,2.25 -3.093,0 -5.343,-2.25 -2.25,-2.25 -2.25,-5.344 0,-3.164 2.25,-5.414 2.25,-2.25 5.343,-2.25 3.164,0 5.414,2.25 2.25,2.25 2.25,5.414 z" style="font-style:italic;font-size:144px;font-family:'Liberation Serif', serif;white-space:pre" id="path345"/></g>
         <path id="rect207" d="m 12135,24478 h 1844 v 12 h -1844 z"/>
         <g aria-label="10" id="text215" class="SVGTextShape"><path d="m 12969.477,24740.625 32.109,3.164 v 6.211 h -84.492 v -6.211 l 32.226,-3.164 v -128.203 l -31.757,11.367 v -6.211 l 45.82,-26.016 h 6.094 z" style="font-size:240px;font-family:'Liberation Serif', serif;white-space:pre" id="path349"/><path d="m 13126.859,24670.781 q 0,81.563 -51.562,81.563 -24.844,0 -37.5,-20.86 -12.656,-20.859 -12.656,-60.703 0,-39.023 12.656,-59.648 12.656,-20.742 38.437,-20.742 24.844,0 37.735,20.507 12.89,20.391 12.89,59.883 z m -21.562,0 q 0,-37.734 -7.149,-54.375 -7.148,-16.64 -22.851,-16.64 -15.234,0 -21.914,15.703 -6.68,15.703 -6.68,55.312 0,39.844 6.797,56.133 6.797,16.172 21.797,16.172 15.469,0 22.734,-16.992 7.266,-17.11 7.266,-55.313 z" style="font-size:240px;font-family:'Liberation Serif', serif;white-space:pre" id="path351"/></g>
         <g aria-label="8" id="text223" class="SVGTextShape"><path d="m 13205.633,24557.703 q 0,7.734 -3.797,13.149 -3.727,5.343 -10.125,8.156 8.016,2.953 12.375,9.281 4.43,6.258 4.43,15.258 0,13.359 -7.524,20.109 -7.523,6.75 -23.414,6.75 -30.094,0 -30.094,-26.859 0,-9.352 4.5,-15.469 4.5,-6.187 12.164,-9.07 -6.117,-2.813 -9.984,-8.156 -3.797,-5.344 -3.797,-13.149 0,-11.672 7.102,-18.07 7.172,-6.399 20.672,-6.399 13.078,0 20.25,6.399 7.242,6.328 7.242,18.07 z m -9.774,45.844 q 0,-11.25 -4.429,-16.313 -4.36,-5.062 -13.852,-5.062 -9.281,0 -13.359,4.851 -4.078,4.782 -4.078,16.524 0,11.883 4.148,16.594 4.149,4.711 13.289,4.711 9.352,0 13.781,-4.852 4.5,-4.922 4.5,-16.453 z m -2.882,-45.844 q 0,-9.703 -3.797,-14.273 -3.797,-4.571 -11.461,-4.571 -7.453,0 -11.11,4.43 -3.586,4.43 -3.586,14.414 0,9.774 3.516,14.063 3.516,4.218 11.18,4.218 7.875,0 11.531,-4.289 3.727,-4.359 3.727,-13.992 z" style="font-size:144px;font-family:'Liberation Serif', serif;white-space:pre" id="path354"/></g>
         <g aria-label="≈" id="text231" class="SVGTextShape"><path d="m 14029.977,24478.227 h -7.149 q 1.524,-37.383 30.938,-37.383 13.125,0 41.484,14.062 28.359,14.063 39.375,14.063 16.992,0 19.688,-25.547 h 7.265 q -2.344,37.5 -31.055,37.5 -14.882,0 -40.546,-14.063 -25.664,-14.062 -40.547,-14.062 -9.024,0 -14.649,8.437 -4.804,7.5 -4.804,16.993 z m 3.867,35.625 h -7.149 q 1.641,-37.5 30.938,-37.5 13.242,0 41.484,14.062 28.242,14.063 39.375,14.063 16.992,0 19.688,-25.43 h 7.148 q -2.109,37.383 -30.937,37.383 -14.883,0 -40.547,-14.063 -25.664,-14.062 -40.547,-14.062 -9.141,0 -14.649,8.437 -4.804,7.5 -4.804,17.11 z" style="font-size:240px;font-family:OpenSymbol;white-space:pre" id="path357"/></g>
         <g aria-label="∞" id="text239" class="SVGTextShape"><path d="m 14595.266,24386.719 q 7.265,-16.289 16.406,-23.672 10.43,-8.672 27.07,-8.672 20.039,0 32.93,14.648 11.953,13.946 11.953,34.336 0,18.75 -10.781,33.282 -12.071,15.937 -30.235,15.937 -21.445,0 -39.375,-33.633 -13.711,27.305 -38.203,27.305 -18.047,0 -28.945,-12.422 -11.133,-12.539 -11.133,-30.703 0,-16.758 9.375,-29.531 10.313,-13.711 26.719,-13.711 12.305,0 20.859,8.203 6.328,5.742 13.36,18.633 z m 11.367,23.789 q 13.945,30.937 36.445,30.937 15.938,0 25.195,-11.25 8.672,-10.781 8.672,-26.836 0,-15.234 -8.906,-26.953 -9.726,-12.89 -24.258,-12.89 -14.062,0 -24.492,17.226 -4.101,7.266 -12.656,29.766 z m -14.649,-14.649 q -10.898,-25.195 -31.406,-25.195 -13.008,0 -21.094,9.492 -7.968,9.61 -7.968,22.735 0,12.89 6.679,22.968 7.735,11.25 20.157,11.25 13.711,0 22.617,-14.531 4.453,-7.031 11.015,-26.719 z" style="font-size:240px;font-family:OpenSymbol;white-space:pre" id="path360"/></g>
         <path id="rect241" d="m 14210,24478 h 790 v 12 h -790 z"/>
         <g aria-label="21" id="text249" class="SVGTextShape"><path d="m 14330.758,24750 h -96.211 v -17.227 l 21.797,-19.804 q 20.976,-18.399 30.82,-29.766 9.844,-11.367 14.063,-23.437 4.336,-12.071 4.336,-27.657 0,-15.234 -6.915,-23.203 -6.914,-7.969 -22.617,-7.969 -6.211,0 -12.773,1.758 -6.563,1.641 -11.602,4.453 l -4.101,19.219 h -7.735 v -30.234 q 21.328,-5.039 36.211,-5.039 25.782,0 38.672,10.781 13.008,10.664 13.008,30.234 0,13.125 -5.156,24.844 -5.039,11.602 -15.586,23.203 -10.547,11.485 -34.922,32.227 -10.43,8.906 -22.149,19.57 h 80.86 z" style="font-size:240px;font-family:'Liberation Serif', serif;white-space:pre" id="path364"/><path d="m 14417.477,24740.625 32.109,3.164 v 6.211 h -84.492 v -6.211 l 32.226,-3.164 v -128.203 l -31.757,11.367 v -6.211 l 45.82,-26.016 h 6.094 z" style="font-size:240px;font-family:'Liberation Serif', serif;white-space:pre" id="path366"/></g>
         <g aria-label="×" id="text257" class="SVGTextShape"><path d="m 14495.898,24741.797 61.172,-61.172 -61.172,-61.172 8.438,-8.203 60.937,61.172 61.407,-61.172 7.968,8.203 -61.171,61.172 61.171,61.172 -7.968,8.203 -61.407,-61.172 -60.937,61.172 z" style="font-size:240px;font-family:OpenSymbol;white-space:pre" id="path369"/></g>
         <g aria-label="10" id="text265" class="SVGTextShape"><path d="m 14740.477,24740.625 32.109,3.164 v 6.211 h -84.492 v -6.211 l 32.226,-3.164 v -128.203 l -31.757,11.367 v -6.211 l 45.82,-26.016 h 6.094 z" style="font-size:240px;font-family:'Liberation Serif', serif;white-space:pre" id="path372"/><path d="m 14897.859,24670.781 q 0,81.563 -51.562,81.563 -24.844,0 -37.5,-20.86 -12.656,-20.859 -12.656,-60.703 0,-39.023 12.656,-59.648 12.656,-20.742 38.437,-20.742 24.844,0 37.735,20.507 12.89,20.391 12.89,59.883 z m -21.562,0 q 0,-37.734 -7.149,-54.375 -7.148,-16.64 -22.851,-16.64 -15.234,0 -21.914,15.703 -6.68,15.703 -6.68,55.312 0,39.844 6.797,56.133 6.797,16.172 21.797,16.172 15.469,0 22.734,-16.992 7.266,-17.11 7.266,-55.313 z" style="font-size:240px;font-family:'Liberation Serif', serif;white-space:pre" id="path374"/></g>
         <g aria-label="6" id="text273" class="SVGTextShape"><path d="m 14979.711,24599.75 q 0,14.695 -7.453,22.711 -7.383,7.945 -21.375,7.945 -15.891,0 -24.328,-12.375 -8.367,-12.375 -8.367,-35.578 0,-15.187 4.429,-26.226 4.43,-11.04 12.375,-16.805 8.016,-5.766 18.492,-5.766 10.266,0 20.461,2.461 v 16.242 h -4.64 l -2.461,-9.632 q -2.321,-1.266 -6.258,-2.18 -3.938,-0.985 -7.102,-0.985 -10.265,0 -16.031,9.985 -5.695,9.914 -6.258,29.039 11.461,-6.047 22.993,-6.047 12.445,0 18.984,7.031 6.539,6.961 6.539,20.18 z m -29.109,25.102 q 8.507,0 12.304,-5.485 3.797,-5.555 3.797,-18.281 0,-11.531 -3.656,-16.664 -3.586,-5.133 -11.461,-5.133 -9.633,0 -20.461,3.516 0,21.445 4.852,31.781 4.851,10.266 14.625,10.266 z" style="font-size:144px;font-family:'Liberation Serif', serif;white-space:pre" id="path377"/></g>
        </g>
       </g>
      </g>
     </g>
    </g>
   </g>
  </g>
 </g>
</svg>